# xmcd CD database file
#
# Track frame offsets:
#	150
#	12346
#	24855
#	38048
#	49572
#	63739
#	78977
#	91100
#	102833
#	114697
#	130139
#	159317
#	173297
#	184053
#	200804
#	217745
#	227974
#	244576
#	262128
#	276124
#	293174
#	302192
#	315252
#	334395
#
# Disc length: 4639 seconds
#
# Revision: 3
# Processed by: cddbd v1.5.2PL0 Copyright (c) Steve Scherf et al.
# Submitted via: CDex 1.51
#
DISCID=45121d18
DTITLE=Ray Charles - the definitive
DYEAR=1900
DGENRE=Blues
TTITLE0=Piste 1
TTITLE1=Piste 2
TTITLE2=Piste 3
TTITLE3=Piste 4
TTITLE4=Piste 5
TTITLE5=Piste 6
TTITLE6=Piste 7
TTITLE7=Piste 8
TTITLE8=Piste 9
TTITLE9=Piste 10
TTITLE10=Piste 11
TTITLE11=Piste 12
TTITLE12=Piste 13
TTITLE13=Piste 14
TTITLE14=Piste 15
TTITLE15=Piste 16
TTITLE16=Piste 17
TTITLE17=Piste 18
TTITLE18=Piste 19
TTITLE19=Piste 20
TTITLE20=Piste 21
TTITLE21=Piste 22
TTITLE22=Piste 23
TTITLE23=Piste 24
EXTD=
EXTT0=
EXTT1=
EXTT2=
EXTT3=
EXTT4=
EXTT5=
EXTT6=
EXTT7=
EXTT8=
EXTT9=
EXTT10=
EXTT11=
EXTT12=
EXTT13=
EXTT14=
EXTT15=
EXTT16=
EXTT17=
EXTT18=
EXTT19=
EXTT20=
EXTT21=
EXTT22=
EXTT23=
PLAYORDER=
